<svg width="20" height="20" viewBox="0 0 20 20" fill="none" xmlns="http://www.w3.org/2000/svg">
<path id="appearance-icon" class="tertiary" d="M10 0C7.34784 0 4.8043 1.05357 2.92893 2.92893C1.05357 4.8043 0 7.34784 0 10C0 12.6522 1.05357 15.1957 2.92893 17.0711C4.8043 18.9464 7.34784 20 10 20C12.6522 20 15.1957 18.9464 17.0711 17.0711C18.9464 15.1957 20 12.6522 20 10C20 7.34784 18.9464 4.8043 17.0711 2.92893C15.1957 1.05357 12.6522 0 10 0ZM10 18.5714V1.42857C11.1256 1.42857 12.2402 1.65028 13.2801 2.08103C14.3201 2.51179 15.265 3.14315 16.0609 3.93908C16.8568 4.73502 17.4882 5.67992 17.919 6.71986C18.3497 7.75979 18.5714 8.87438 18.5714 10C18.5714 11.1256 18.3497 12.2402 17.919 13.2801C17.4882 14.3201 16.8568 15.265 16.0609 16.0609C15.265 16.8568 14.3201 17.4882 13.2801 17.919C12.2402 18.3497 11.1256 18.5714 10 18.5714Z" fill="currentColor"/>
</svg>
