<svg width="20" height="20" viewBox="0 0 20 20" fill="none" xmlns="http://www.w3.org/2000/svg">
<path d="M10 0C12.6522 0 15.1957 1.05357 17.0711 2.92893C18.9464 4.8043 20 7.34784 20 10C20 12.6522 18.9464 15.1957 17.0711 17.0711C15.1957 18.9464 12.6522 20 10 20C7.34783 20 4.8043 18.9464 2.92893 17.0711C1.05357 15.1957 -4.76837e-07 12.6522 -4.76837e-07 10C-4.76837e-07 7.34784 1.05357 4.8043 2.92893 2.92893C4.8043 1.05357 7.34783 0 10 0ZM10 18.5714V1.42857C8.87438 1.42857 7.75979 1.65028 6.71986 2.08103C5.67992 2.51179 4.73502 3.14315 3.93908 3.93908C3.14315 4.73502 2.51179 5.67992 2.08103 6.71986C1.65028 7.75979 1.42857 8.87438 1.42857 10C1.42857 11.1256 1.65028 12.2402 2.08103 13.2801C2.51179 14.3201 3.14315 15.265 3.93908 16.0609C4.73502 16.8568 5.67992 17.4882 6.71986 17.919C7.75979 18.3497 8.87438 18.5714 10 18.5714Z" fill="currentColor"/>
</svg>
