<svg width="20" height="20" viewBox="0 0 20 20" fill="none" xmlns="http://www.w3.org/2000/svg">
<path id="close-icon" d="M0.833403 7.83236C0.744979 7.83236 0.660177 7.79723 0.597652 7.73471C0.535126 7.67218 0.5 7.58738 0.5 7.49896V0.833403C0.5 0.744979 0.535126 0.660177 0.597652 0.597652C0.660177 0.535126 0.744979 0.5 0.833403 0.5H7.50062C7.58905 0.5 7.67385 0.535126 7.73638 0.597652C7.7989 0.660177 7.83403 0.744979 7.83403 0.833403V7.49896C7.83403 7.58738 7.7989 7.67218 7.73638 7.73471C7.67385 7.79723 7.58905 7.83236 7.50062 7.83236H0.833403ZM12.501 7.83236C12.4126 7.83236 12.3278 7.79723 12.2653 7.73471C12.2028 7.67218 12.1676 7.58738 12.1676 7.49896V0.833403C12.1676 0.744978 12.2028 0.660176 12.2653 0.597652C12.3278 0.535127 12.4126 0.5 12.501 0.5H19.1666C19.255 0.5 19.3398 0.535127 19.4023 0.597652C19.4649 0.660176 19.5 0.744978 19.5 0.833403V7.49896C19.5 7.58738 19.4649 7.67218 19.4023 7.73471C19.3398 7.79723 19.255 7.83236 19.1666 7.83236H12.501ZM0.833403 19.5C0.744978 19.5 0.660176 19.4649 0.597652 19.4023C0.535127 19.3398 0.5 19.255 0.5 19.1666V12.4994C0.5 12.411 0.535127 12.3261 0.597652 12.2636C0.660176 12.2011 0.744978 12.166 0.833403 12.166H7.50062C7.58905 12.166 7.67385 12.2011 7.73638 12.2636C7.7989 12.3261 7.83403 12.411 7.83403 12.4994V19.1666C7.83403 19.255 7.7989 19.3398 7.73638 19.4023C7.67385 19.4649 7.58905 19.5 7.50062 19.5H0.833403ZM12.501 19.5C12.4126 19.5 12.3278 19.4649 12.2653 19.4023C12.2028 19.3398 12.1676 19.255 12.1676 19.1666V12.4994C12.1676 12.4109 12.2028 12.3261 12.2653 12.2636C12.3278 12.2011 12.4126 12.166 12.501 12.166H19.1666C19.255 12.166 19.3398 12.2011 19.4023 12.2636C19.4649 12.3261 19.5 12.4109 19.5 12.4994V19.1666C19.5 19.255 19.4649 19.3398 19.4023 19.4023C19.3398 19.4649 19.255 19.5 19.1666 19.5H12.501Z" stroke="currentColor"/>
</svg>
